<?xml version="1.0" encoding="UTF-8" standalone="no"?>
<!-- Generator: Adobe Illustrator 27.9.0, SVG Export Plug-In . SVG Version: 6.00 Build 0)  -->

<svg
   version="1.1"
   id="Ebene_1"
   x="0px"
   y="0px"
   viewBox="0 0 496.95 201.1"
   xml:space="preserve"
   width="496.95001"
   height="201.10001"
   xmlns="http://www.w3.org/2000/svg"
   xmlns:svg="http://www.w3.org/2000/svg"><defs
   id="defs2" />
<style
   type="text/css"
   id="style1">
	.st0{fill:#17365B;}
	.st1{fill:#526D9D;}
</style>
<g
   id="g2"
   transform="translate(-160.47,-213.08)">
	<path
   class="st0"
   d="m 201.97,257.15 h 15.78 v 53.9 H 202.9 V 280.1 l -13.78,21.1 h -0.31 L 175.1,280.26 v 30.8 h -14.63 v -53.9 h 15.78 l 12.86,20.87 z m 85.25,20.64 v -8.39 h -14.63 v 41.65 h 14.63 v -12.94 c 0,-9.62 4.31,-14.01 11.93,-14.01 h 1.23 v -15.4 c -6.93,-0.31 -10.78,3.39 -13.16,9.09 z m 60.82,-8.39 h -16.55 l -11.32,13.94 v -28.49 h -14.63 v 56.21 h 14.63 v -9.78 l 3.77,-4.39 8.39,14.17 h 16.09 l -14.86,-24.95 z m 60.08,30.84 v 10.37 c 0,0 -3.19,1.05 -9.07,1.34 -5.65,0.22 -7.77,-3.17 -8.48,-5.25 -0.02,0.02 -0.04,0.03 -0.04,0.03 -2.85,3.16 -6.77,5.23 -12.24,5.23 -7.93,0 -14.01,-4.54 -14.01,-12.85 v -0.15 c 0,-8.62 6.54,-13.08 16.31,-13.08 3.85,0 7.62,0.77 10.01,1.62 v -0.69 c 0,-4.31 -2.69,-6.77 -8.31,-6.77 -4.39,0 -7.77,0.85 -11.47,2.31 l -3,-10.31 c 4.69,-1.92 9.7,-3.23 16.85,-3.23 7.47,0 12.54,1.77 15.85,5.08 3.16,3.08 4.46,7.39 4.46,13.24 v 10.77 c 0.01,0.92 0.15,2.41 2.16,2.4 0.64,-0.03 0.98,-0.06 0.98,-0.06 z m -17.36,-6.2 c -1.46,-0.62 -3.54,-1.08 -5.69,-1.08 -4.23,0 -6.7,2.08 -6.7,5.16 v 0.15 c 0,2.85 2.16,4.54 5.16,4.54 4.23,0 7.23,-2.69 7.23,-6.85 z m -124.56,6.25 c 0.63,-0.02 0.97,-0.05 0.97,-0.05 v 10.37 c 0,0 -3.19,1.05 -9.07,1.34 -5.65,0.22 -7.77,-3.17 -8.48,-5.25 -0.02,0.02 -0.04,0.03 -0.04,0.03 -2.85,3.16 -6.77,5.23 -12.24,5.23 -7.93,0 -14.01,-4.54 -14.01,-12.85 v -0.15 c 0,-8.62 6.54,-13.08 16.31,-13.08 3.85,0 7.62,0.77 10.01,1.62 v -0.69 c 0,-4.31 -2.69,-6.77 -8.31,-6.77 -4.39,0 -7.77,0.85 -11.47,2.31 l -3,-10.31 c 4.69,-1.92 9.7,-3.23 16.85,-3.23 7.47,0 12.54,1.77 15.85,5.08 3.16,3.08 4.46,7.39 4.46,13.24 v 10.77 c 0.03,0.91 0.17,2.4 2.17,2.39 z m -16.39,-6.25 c -1.46,-0.62 -3.54,-1.08 -5.69,-1.08 -4.23,0 -6.7,2.08 -6.7,5.16 v 0.15 c 0,2.85 2.16,4.54 5.16,4.54 4.23,0 7.23,-2.69 7.23,-6.85 z"
   id="path1"
   style="fill:#b3b3b3;fill-opacity:1" />
	<path
   class="st1"
   d="m 555.62,268.47 c -6.24,0 -9.78,3 -12.63,6.47 v -5.54 h -14.63 v 55.34 h 14.63 v -18.76 c 2.69,3.16 6.39,6.01 12.7,6.01 9.86,0 18.4,-8.24 18.4,-21.79 v -0.15 c 0.01,-13.34 -8.54,-21.58 -18.47,-21.58 z m 4.08,21.79 c 0,5.62 -3.77,9.47 -8.55,9.47 -4.7,0 -8.47,-3.93 -8.47,-9.47 v -0.15 c 0,-5.47 3.77,-9.39 8.47,-9.39 4.77,0 8.55,3.93 8.55,9.39 z m 42.12,-21.79 c -13.4,0 -23.1,9.93 -23.1,21.79 v 0.15 c 0,11.86 9.62,21.64 22.94,21.64 13.4,0 23.1,-9.93 23.1,-21.79 v -0.15 c 0.01,-11.86 -9.62,-21.64 -22.94,-21.64 z m 8.7,21.94 c 0,5 -3.39,9.24 -8.7,9.24 -5.16,0 -8.85,-4.31 -8.85,-9.39 v -0.15 c 0,-5 3.39,-9.24 8.7,-9.24 5.16,0 8.85,4.31 8.85,9.39 z m 37.2,-9.23 v 14.09 c 0,2.93 1.31,4.16 4,4.16 1.92,0 3.77,-0.54 5.54,-1.39 v 11.47 c -2.62,1.46 -6.08,2.39 -10.16,2.39 -8.78,0 -14.01,-3.85 -14.01,-13.78 v -16.94 h -4.93 V 269.4 h 4.93 v -10.55 h 14.63 v 10.55 h 9.7 v 11.78 z M 503.06,296.7 v -0.2 c 0,-3.27 -2.73,-4.91 -11.7,-7.02 -13.63,-3.17 -24.92,-6.93 -24.92,-20.98 v -0.2 c 0,-12.77 10.24,-21.35 25.48,-21.35 10.81,0 19.62,2.84 26.93,8.67 l -8.74,12.57 c -6.04,-4.22 -12.65,-6.53 -18.67,-6.53 -5.32,0 -7.21,2.53 -7.21,4.89 v 0.2 c 0,3.7 3.14,5.08 11.99,7.12 14.78,3.27 24.63,8.06 24.63,20.78 v 0.2 c 0,13.41 -10.2,21.74 -26.63,21.74 -11.96,0 -22.86,-3.86 -30.75,-10.87 l 9.73,-11.83 c 6.69,5.31 13.98,8 21.69,8 5.2,-0.01 8.17,-1.9 8.17,-5.19 z m 20.2,43.57 h 17.89 c -3.04,6.29 -6.46,12.75 -10.32,19.4 -12.92,22.26 -25.75,38.31 -26.29,38.98 l -12.48,15.53 -12.48,-15.53 c -0.54,-0.67 -13.37,-16.72 -26.29,-38.98 -17.98,-30.97 -27.09,-58.13 -27.09,-80.73 0,-36.31 29.54,-65.86 65.86,-65.86 26.04,0 48.6,15.2 59.28,37.19 h -18.5 c -9.02,-12.81 -23.92,-21.19 -40.78,-21.19 -27.54,0 -49.86,22.32 -49.86,49.86 0,47.6 49.86,109.69 49.86,109.69 0,0 17.04,-21.22 31.2,-48.36 z"
   id="path2"
   style="fill:#b3b3b3;fill-opacity:1" />
</g>
</svg>
