<svg xmlns="http://www.w3.org/2000/svg" xml:space="preserve" viewBox="0 0 496.95 201.1"><path d="M201.97 257.15h15.78v53.9H202.9V280.1l-13.78 21.1h-.31l-13.71-20.94v30.8h-14.63v-53.9h15.78l12.86 20.87zm85.25 20.64v-8.39h-14.63v41.65h14.63v-12.94c0-9.62 4.31-14.01 11.93-14.01h1.23v-15.4c-6.93-.31-10.78 3.39-13.16 9.09zm60.82-8.39h-16.55l-11.32 13.94v-28.49h-14.63v56.21h14.63v-9.78l3.77-4.39 8.39 14.17h16.09l-14.86-24.95zm60.08 30.84v10.37s-3.19 1.05-9.07 1.34c-5.65.22-7.77-3.17-8.48-5.25-.02.02-.04.03-.04.03-2.85 3.16-6.77 5.23-12.24 5.23-7.93 0-14.01-4.54-14.01-12.85v-.15c0-8.62 6.54-13.08 16.31-13.08 3.85 0 7.62.77 10.01 1.62v-.69c0-4.31-2.69-6.77-8.31-6.77-4.39 0-7.77.85-11.47 2.31l-3-10.31c4.69-1.92 9.7-3.23 16.85-3.23 7.47 0 12.54 1.77 15.85 5.08 3.16 3.08 4.46 7.39 4.46 13.24v10.77c.01.92.15 2.41 2.16 2.4.64-.03.98-.06.98-.06zm-17.36-6.2c-1.46-.62-3.54-1.08-5.69-1.08-4.23 0-6.7 2.08-6.7 5.16v.15c0 2.85 2.16 4.54 5.16 4.54 4.23 0 7.23-2.69 7.23-6.85zm-124.56 6.25c.63-.02.97-.05.97-.05v10.37s-3.19 1.05-9.07 1.34c-5.65.22-7.77-3.17-8.48-5.25-.02.02-.04.03-.04.03-2.85 3.16-6.77 5.23-12.24 5.23-7.93 0-14.01-4.54-14.01-12.85v-.15c0-8.62 6.54-13.08 16.31-13.08 3.85 0 7.62.77 10.01 1.62v-.69c0-4.31-2.69-6.77-8.31-6.77-4.39 0-7.77.85-11.47 2.31l-3-10.31c4.69-1.92 9.7-3.23 16.85-3.23 7.47 0 12.54 1.77 15.85 5.08 3.16 3.08 4.46 7.39 4.46 13.24v10.77c.03.91.17 2.4 2.17 2.39zm-16.39-6.25c-1.46-.62-3.54-1.08-5.69-1.08-4.23 0-6.7 2.08-6.7 5.16v.15c0 2.85 2.16 4.54 5.16 4.54 4.23 0 7.23-2.69 7.23-6.85z" style="fill:#586c99;fill-opacity:1" transform="translate(-160.47 -213.08)"/><path d="M555.62 268.47c-6.24 0-9.78 3-12.63 6.47v-5.54h-14.63v55.34h14.63v-18.76c2.69 3.16 6.39 6.01 12.7 6.01 9.86 0 18.4-8.24 18.4-21.79v-.15c.01-13.34-8.54-21.58-18.47-21.58zm4.08 21.79c0 5.62-3.77 9.47-8.55 9.47-4.7 0-8.47-3.93-8.47-9.47v-.15c0-5.47 3.77-9.39 8.47-9.39 4.77 0 8.55 3.93 8.55 9.39zm42.12-21.79c-13.4 0-23.1 9.93-23.1 21.79v.15c0 11.86 9.62 21.64 22.94 21.64 13.4 0 23.1-9.93 23.1-21.79v-.15c.01-11.86-9.62-21.64-22.94-21.64zm8.7 21.94c0 5-3.39 9.24-8.7 9.24-5.16 0-8.85-4.31-8.85-9.39v-.15c0-5 3.39-9.24 8.7-9.24 5.16 0 8.85 4.31 8.85 9.39zm37.2-9.23v14.09c0 2.93 1.31 4.16 4 4.16 1.92 0 3.77-.54 5.54-1.39v11.47c-2.62 1.46-6.08 2.39-10.16 2.39-8.78 0-14.01-3.85-14.01-13.78v-16.94h-4.93V269.4h4.93v-10.55h14.63v10.55h9.7v11.78zM503.06 296.7v-.2c0-3.27-2.73-4.91-11.7-7.02-13.63-3.17-24.92-6.93-24.92-20.98v-.2c0-12.77 10.24-21.35 25.48-21.35 10.81 0 19.62 2.84 26.93 8.67l-8.74 12.57c-6.04-4.22-12.65-6.53-18.67-6.53-5.32 0-7.21 2.53-7.21 4.89v.2c0 3.7 3.14 5.08 11.99 7.12 14.78 3.27 24.63 8.06 24.63 20.78v.2c0 13.41-10.2 21.74-26.63 21.74-11.96 0-22.86-3.86-30.75-10.87l9.73-11.83c6.69 5.31 13.98 8 21.69 8 5.2-.01 8.17-1.9 8.17-5.19zm20.2 43.57h17.89c-3.04 6.29-6.46 12.75-10.32 19.4-12.92 22.26-25.75 38.31-26.29 38.98l-12.48 15.53-12.48-15.53c-.54-.67-13.37-16.72-26.29-38.98-17.98-30.97-27.09-58.13-27.09-80.73 0-36.31 29.54-65.86 65.86-65.86 26.04 0 48.6 15.2 59.28 37.19h-18.5c-9.02-12.81-23.92-21.19-40.78-21.19-27.54 0-49.86 22.32-49.86 49.86 0 47.6 49.86 109.69 49.86 109.69s17.04-21.22 31.2-48.36z" style="fill:#fff" transform="translate(-160.47 -213.08)"/></svg>
