<svg xmlns="http://www.w3.org/2000/svg" viewBox="0 0 547.14 319.12"><defs><style>.cls-1,.cls-2,.cls-3{fill: #000; stroke:#000;stroke-miterlimit:10;stroke-width:2px;}.cls-2{fill:#666;}.cls-3{opacity:0.52;}</style></defs><title>logo</title><g id="Ebene_1" data-name="Ebene 1"><path class="cls-1" d="M445,262a4.27,4.27,0,0,1,4.63-.52,3.9,3.9,0,0,1,2.18,3.6c.09,1.32,0,2.64,0,4a2,2,0,0,0,.29,1.36,19.29,19.29,0,0,1,4.2-5.25,17,17,0,0,1,7.7-3.64,20.65,20.65,0,0,1,5.6-.55c3,.19,4.56,2,4.13,5a3.43,3.43,0,0,1-2.9,2.92c-.83.12-1.67.23-2.51.27-7.73.46-12.68,5.05-14.89,12A35.56,35.56,0,0,0,452,291.79c-.07,8.2,0,16.4,0,24.59a5.82,5.82,0,0,1-.54,3.15,4.31,4.31,0,0,1-4.73,2,4.1,4.1,0,0,1-3.33-3.88c0-.4,0-.8,0-1.2q0-25.14,0-50.27C443.34,264.59,443.56,263,445,262Z" transform="translate(-238.05 -225.8)"/><path class="cls-1" d="M249.58,260.76a4.29,4.29,0,0,1,4.6,4.2c.08,1.79,0,3.59,0,5.39v1.48c1.26-.92,1.44-2.62,2.9-3.07.79-1.72,2.37-2.66,3.81-3.68a21.91,21.91,0,0,1,8.17-3.62,32.79,32.79,0,0,1,12.1-.3,27.28,27.28,0,0,1,9.81,3.59,21.33,21.33,0,0,1,8.53,9.63c.17.37.21,1,.73,1s.45-.59.63-.94a24.48,24.48,0,0,1,11.5-10.93,28.67,28.67,0,0,1,16.34-2.57c9.38,1.22,17,5.51,21.57,14.2a22.19,22.19,0,0,1,2.56,10.48q0,16,0,32a4.33,4.33,0,0,1-2.44,4.31,4.74,4.74,0,0,1-5.3-.52c-1.51-1.17-1.58-3-1.59-4.7-.06-9.48,0-19,0-28.44,0-.68,0-1.36,0-2-.29-7-3.76-12-9.9-15C328.92,269,324,269,319,270.48a20.69,20.69,0,0,0-10.48,7,22.8,22.8,0,0,0-4.21,8.89,23.87,23.87,0,0,0-.64,6.18q0,12.48,0,25a4.73,4.73,0,0,1-7,4.41,4.24,4.24,0,0,1-2.39-4.11c0-6.19,0-12.39,0-18.59,0-3.84.13-7.69,0-11.52a20.12,20.12,0,0,0-3.61-11.22,15.68,15.68,0,0,0-10-6.38,21.68,21.68,0,0,0-16.2,2.92,20.68,20.68,0,0,0-9.28,12.76,27.14,27.14,0,0,0-.66,6.52c-.06,7.76,0,15.52,0,23.28a21.44,21.44,0,0,1-.19,3,4.31,4.31,0,0,1-4.73,3.75,4.12,4.12,0,0,1-4.23-4.15v-.24c0-17.6,0-35.19,0-52.79A4.53,4.53,0,0,1,249.58,260.76Z" transform="translate(-238.05 -225.8)"/><path class="cls-2" d="M359.26,464.14a31.83,31.83,0,0,1-2.69,8.42,34.67,34.67,0,0,1-7.14,9.82c-5.92,5.72-13.1,9.21-20.8,11.74a87.93,87.93,0,0,1-17.32,3.65,99,99,0,0,1-13.87.64,112.3,112.3,0,0,1-23.16-2.74,64.67,64.67,0,0,1-18.71-7.19c-7.11-4.26-12.48-10-15.17-18a25.8,25.8,0,0,1-1.25-4.87c-.53-4.09,1.07-6.82,5-8.91a9.39,9.39,0,0,1,11.44,1.73,6.43,6.43,0,0,1,1.59,2.79,17.43,17.43,0,0,0,5.44,9.64,6.65,6.65,0,0,1,2.11,1.34,39.3,39.3,0,0,0,12.64,5.61,76,76,0,0,0,11.33,2.28c3.34.4,6.69.51,10,.79,3.51.28,7-.35,10.48-.8a59.13,59.13,0,0,0,18.27-5.44c5.29-2.56,9.81-6.09,11.94-11.85s1.2-13-4.15-17.09a24.67,24.67,0,0,0-7.67-3.84,80.26,80.26,0,0,0-13.73-2.58c-3.36-.45-6.76-.51-10.14-.82-4.73-.42-9.45-.83-14.17-1.34-3.57-.39-7.14-.77-10.68-1.31a79.16,79.16,0,0,1-18.15-4.61,35.86,35.86,0,0,1-12-7.54,28.41,28.41,0,0,1-6.61-10.72A35.74,35.74,0,0,1,240.18,401a32.15,32.15,0,0,1,4.21-16.73,39.23,39.23,0,0,1,11.88-12.63,63.77,63.77,0,0,1,19-8.61,90.2,90.2,0,0,1,29.5-3,108.08,108.08,0,0,1,15,1.66c7.73,1.49,15.17,3.86,21.8,8.22a34.43,34.43,0,0,1,13.79,16.75c2,5.3.13,9.41-4.65,11.82a10,10,0,0,1-8.47.61c-1.74-.7-3.44-1.57-4-3.62-.73-1.46-1.38-3-2.21-4.38-2.7-4.52-6.78-7.38-11.58-9.26a55.65,55.65,0,0,0-18.35-3.66c-2-.09-4-.44-6-.4a71,71,0,0,0-18.94,2.46c-5.33,1.56-10.39,3.58-14.78,7.12a17,17,0,0,0-5.88,18.79c1.18,3.74,3.91,6.15,7.36,7.79,5.59,2.66,11.64,3.28,17.69,3.84,5.61.52,11.22,1,16.83,1.38s11.14,1.07,16.67,1.83a79.5,79.5,0,0,1,21.63,5.58,32.12,32.12,0,0,1,13.79,10.8,29.83,29.83,0,0,1,4.63,11.1,62.87,62.87,0,0,1,.86,8A29.55,29.55,0,0,1,359.26,464.14Z" transform="translate(-238.05 -225.8)"/><path class="cls-1" d="M425.13,264.44a4.07,4.07,0,0,0-3.66-3.41,4.16,4.16,0,0,0-4.38,2.24c-.63,1.33-.4,2.74-.46,4.13a3.22,3.22,0,0,1-.29,1.91,18.5,18.5,0,0,0-4.43-4.64,22.88,22.88,0,0,0-10.65-3.91,31.37,31.37,0,0,0-16.42,2.14A27.48,27.48,0,0,0,372.42,273a29.72,29.72,0,0,0-4.85,12.63,37.41,37.41,0,0,0-.05,10.62,30.5,30.5,0,0,0,4.91,13.35c5.92,8.6,14.18,13,24.62,13.16A23,23,0,0,0,412,317.62a19.52,19.52,0,0,0,4.31-4.92c.45.43.3.9.31,1.31,0,1.44,0,2.89.08,4.32a3.62,3.62,0,0,0,2.94,3.46c2.38.48,4.07-.18,5.07-1.91a5.55,5.55,0,0,0,.52-2.91q0-25.43,0-50.85A13.41,13.41,0,0,0,425.13,264.44Zm-9,35.51A17.83,17.83,0,0,1,410.28,310a19.19,19.19,0,0,1-13.53,4.61A20.49,20.49,0,0,1,382,307.87a24,24,0,0,1-6.2-17.49c.14-5,1.28-9.73,4.53-13.74A20.74,20.74,0,0,1,392,269.38a22.15,22.15,0,0,1,15.49,1.73,15.49,15.49,0,0,1,8.15,9.56c1.07,3.39,1,6.85,1,11.46A33,33,0,0,1,416.1,300Z" transform="translate(-238.05 -225.8)"/><path class="cls-1" d="M529.12,321.69a4.27,4.27,0,0,1-5.36-.93c-2.62-2.85-5.19-5.76-7.75-8.67a43.53,43.53,0,0,1-3.8-4.45c-2.19-2-4-4.36-6-6.52s-4.06-4.52-6-6.83c-.65-.75-1.14-.92-1.93-.15-1.61,1.55-3.29,3-5,4.49a2.45,2.45,0,0,0-.94,2.06c0,5.6,0,11.2,0,16.8a4.11,4.11,0,0,1-2.32,4,4.69,4.69,0,0,1-4.69-.24,3.18,3.18,0,0,1-1.6-2.41c-.07-.75-.16-1.51-.16-2.27q0-34.06,0-68.14a5,5,0,0,1,.74-3.44,4.81,4.81,0,0,1,5.35-1.27,3.7,3.7,0,0,1,2.68,3.94q0,13.06,0,26.15,0,7.14,0,14.28c0,.34-.16.82.21,1s.6-.28.83-.52c8.89-8.92,18.28-17.3,27.42-26a7.22,7.22,0,0,1,2.63-1.83,4.46,4.46,0,0,1,5.46,1.74c1,1.65.69,3.76-1.06,5.4-4.58,4.29-9.2,8.53-13.8,12.79-2.35,2.18-4.7,4.34-7,6.52-1.15,1.06-1.15,1.1-.08,2.27l22.5,24.75a6.23,6.23,0,0,1,1.87,3.14A4.06,4.06,0,0,1,529.12,321.69Z" transform="translate(-238.05 -225.8)"/><path class="cls-2" d="M779.77,492.91a31.42,31.42,0,0,1-13.32,4.77,54.44,54.44,0,0,1-10.52.48c-7.28-.36-14.27-1.83-20.47-5.91a30.59,30.59,0,0,1-10.05-11.09,49.71,49.71,0,0,1-4.95-14.44,102.68,102.68,0,0,1-1.53-19.56c-.06-22.08,0-44.16,0-66.23,0-2,0-2-2.06-2-4.84,0-9.68,0-14.52,0-2.45,0-4.84-.33-6.87-2a8.39,8.39,0,0,1-.93-11.45,8.79,8.79,0,0,1,6.88-3.09c5.28,0,10.56,0,15.84,0,1.62,0,1.66,0,1.66-1.7,0-8.92,0-17.83,0-26.75a18.35,18.35,0,0,1,.55-5.1,8.33,8.33,0,0,1,5.68-5.86,9.61,9.61,0,0,1,10.7,2.79c1.9,2.06,2.17,4.68,2.18,7.3,0,9,0,18.08,0,27.11,0,2.21,0,2.21,2.15,2.21H766a13.61,13.61,0,0,1,3.91.48,8,8,0,0,1,5.61,7.56,7.9,7.9,0,0,1-5.51,8,15.23,15.23,0,0,1-4.5.56H740.43c-2.38,0-2.38,0-2.38,2.32v36.71h0q0,17.34,0,34.68a51.85,51.85,0,0,0,1.72,13.87c1.22,4.44,3.26,8.41,7.14,11.19a16,16,0,0,0,7.79,2.89,28.73,28.73,0,0,0,15.45-2.4,24,24,0,0,1,4.35-1.64c2.49-.63,6.15.91,8,3.43C785.54,484.22,784.44,489.74,779.77,492.91Z" transform="translate(-238.05 -225.8)"/><path class="cls-2" d="M518.07,414.07a68.84,68.84,0,0,0-6-17.38,64.55,64.55,0,0,0-17.6-21.56,68,68,0,0,0-39.7-14.55,57.27,57.27,0,0,0-14.51,1.21,50,50,0,0,0-20.76,9.73,42.2,42.2,0,0,0-9.22,10.32c-.21.33-.35.9-.77.79s-.25-.69-.25-1.06c0-3.71.08-7.44-.06-11.15-.12-3.19-1.19-6.05-4.36-7.44a11.75,11.75,0,0,0-9.56.08,7,7,0,0,0-2.71,2.11,9.84,9.84,0,0,0-2,6.6q0,40.55,0,81.1v41.88q0,19.78,0,39.59a10,10,0,0,0,.88,4.43c2.65,5.6,11.09,6.93,15.7,2.48a9.1,9.1,0,0,0,2.65-7q0-26.64,0-53.27c0-.4,0-.8,0-1.2s-.1-.65.21-.75.48.31.67.54a4.17,4.17,0,0,1,.4.6A35.9,35.9,0,0,0,422.16,491,51.59,51.59,0,0,0,442,498.32a71.82,71.82,0,0,0,25.49-.59,65.12,65.12,0,0,0,20.22-7.54A61.68,61.68,0,0,0,511,466.6,67.53,67.53,0,0,0,518.63,445a81,81,0,0,0,1.24-13.71A83.42,83.42,0,0,0,518.07,414.07ZM497,452a37.54,37.54,0,0,1-7.6,12.54,49.09,49.09,0,0,1-22.48,14.29A46.36,46.36,0,0,1,428,474a38.08,38.08,0,0,1-15.09-17.54,39.67,39.67,0,0,1-3.17-14.68c-.1-3.87,0-7.75,0-11.63s-.1-7.6,0-11.4c.34-11.19,4.14-20.92,12.46-28.64a40.27,40.27,0,0,1,13-8,49.14,49.14,0,0,1,18-3.42,45.44,45.44,0,0,1,12.82,2.21A41.94,41.94,0,0,1,481.46,389a51.89,51.89,0,0,1,16.14,23.77,62.76,62.76,0,0,1,2.91,17.89A58.48,58.48,0,0,1,497,452Z" transform="translate(-238.05 -225.8)"/><path class="cls-1" d="M646.67,315.87Q639.34,301.41,632,287a68.06,68.06,0,0,0-3.57-6.76,2.31,2.31,0,0,0-.12-.47q-4.32-8.53-8.67-17.07a3.61,3.61,0,0,0-3.44-2.34,3.72,3.72,0,0,0-3.38,2.44q-4.66,9.24-9.37,18.47-8.82,17.4-17.65,34.81a3.24,3.24,0,0,0-.49,2.52,3.6,3.6,0,0,0,3.11,2.48,3,3,0,0,0,3.16-1.48c.31-.51.54-1.06.82-1.59,2-3.93,4.1-7.84,6.11-11.79a1.85,1.85,0,0,1,1.85-1.17q16,0,31.91,0a1.75,1.75,0,0,1,1.78,1.1c.72,1.51,1.48,3,2.23,4.5,1.42,2.81,2.8,5.64,4.29,8.42a3.8,3.8,0,0,0,5.19,1.43C647.49,319.51,647.78,318.05,646.67,315.87Zm-17.53-16.74H603.47c-1.43,0-1.55-.22-.9-1.53q6.51-13,13-26c.17-.35.41-.67.77-1.25,1.5,3,2.87,5.73,4.23,8.47q4.73,9.48,9.43,19C630.6,299,630.49,299.13,629.14,299.13Z" transform="translate(-238.05 -225.8)"/><path class="cls-2" d="M616,359.5c-37,0-67,31.34-67,70s30,70,67,70,67-31.34,67-70S653,359.5,616,359.5Zm-.49,120.86c-27.48,0-49.76-22.77-49.76-50.86s22.28-50.86,49.76-50.86,49.75,22.77,49.75,50.86S643,480.36,615.51,480.36Z" transform="translate(-238.05 -225.8)"/><path class="cls-3" d="M582.61,236.46c-45.92,29.79-29.9,81.88-11.88,121.85,10.7,23.74,26.92,85.44,54.93,71.72,21.72-10.63,54.45-111.84,54.11-136C679.08,244.27,625.21,208.84,582.61,236.46Zm78.11,75.2a51,51,0,0,1-7.53,15,58.43,58.43,0,0,1-6,6.79c-.39.39-1.59,1.45-2,1.81a48.89,48.89,0,0,1-10.56,6.64,44.82,44.82,0,0,1-43.84-3.52,49.21,49.21,0,0,1-15.28-16.5,49.89,49.89,0,0,1-6.62-20.76,51.21,51.21,0,0,1,.91-16.54,56.42,56.42,0,0,1,4.83-13.3A48.58,48.58,0,0,1,591,253.1a44.63,44.63,0,0,1,24.45-7.48A43.06,43.06,0,0,1,626.86,247,46.07,46.07,0,0,1,647,258a49.93,49.93,0,0,1,14.21,23.53,69.71,69.71,0,0,1,1.86,10.85,49.28,49.28,0,0,1-.38,10.52A45.63,45.63,0,0,1,660.72,311.66Z" transform="translate(-238.05 -225.8)"/><path class="cls-1" d="M646,409" transform="translate(-238.05 -225.8)"/></g></svg>
