<?xml version="1.0" encoding="utf-8"?>
<!-- Generator: Adobe Illustrator 19.2.1, SVG Export Plug-In . SVG Version: 6.00 Build 0)  -->
<svg version="1.1" id="Ebene_1" xmlns="http://www.w3.org/2000/svg" xmlns:xlink="http://www.w3.org/1999/xlink" x="0px" y="0px"
	 viewBox="0 0 616 232" style="enable-background:new 0 0 616 232;" xml:space="preserve">
<style type="text/css">
	.st0{fill:#003399;}
	.st1{fill:#181716;}
	.st2{fill:#2C5AA6;}
	.st3{fill:#66CC00;}
</style>
<g>
	<g>
		<polygon class="st0" points="362,157.8 362,142.8 320,142.8 320,225.8 402,225.8 402,157.8 		"/>
		<polygon class="st1" points="443,158 422,158 422,152 438,152 438,81 422,81 422,75 443,75 		"/>
		<polygon class="st2" points="558.8,231.7 558.8,231.7 558.8,232 558.8,232 		"/>
		<path class="st1" d="M452,130.4v0.4h7.5c0.8,0,1.5-0.2,2.3-0.2L452,130.4L452,130.4z M481.7,130.4c1.1,0.3,2.2,0.4,3.5,0.4
			s2.5-0.1,3.5-0.4H481.7L481.7,130.4z M498.7,130.4v0.1c0,43.4,23.5,81.1,58.4,101.3v-6c-31.9-19.7-53.1-55.1-53.1-95.3v-0.1H498.7
			L498.7,130.4z M512.2,130.8c1.5,0,3,0.4,4.5,0.4c1.4,0,2.7-0.4,3.9-0.4H512.2L512.2,130.8z M531,130.4v0.4h8.1
			c0.6,0,1.5-0.2,2.2-0.2L531,130.4L531,130.4z M557.1,130.4c1.1,0.3,2.2,0.4,3.5,0.4s2.5-0.1,3.5-0.4H557.1L557.1,130.4z
			 M574.8,130.8L574.8,130.8h5.3l0,0H574.8L574.8,130.8z M586.7,130.8L586.7,130.8h5.7l0,0H586.7L586.7,130.8z M603.9,130.4
			c1.2,0.3,2.5,0.4,3.7,0.4c1.5,0,3.3,0,5.6-0.4H603.9L603.9,130.4z"/>
		<g>
			<path class="st1" d="M525,122.4c0-3.2-2.8-3.5-4.6-4c-2.3-0.7-4.6-0.9-4.6-2.8s2.4-2.1,3.7-2.1c1.7,0,3.2,0.3,4.7,1l0.3-4.4
				c-1.5-0.3-2.8-0.4-4.8-0.4c-4.2,0-9.6,1.1-9.6,6.1c0,3.2,1.5,4.8,3.8,5.8c0.8,0.3,1.5,0.2,2.3,1.2l0,0c1.9,0,3.5,0.7,3.5,2.5
				c0,1.5-1.7,1.8-3.3,1.8c-2.3,0-4.3-0.8-5.7-1.6l-0.5,4.8c0.5,0.1,1.1-0.5,1.7,0.5h8.4c3-1,5-2.8,5-6.6c0-0.8,0.4-1.3-0.6-1.9v0.1
				H525z"/>
			<path class="st1" d="M589.3,122.8L589.3,122.8c-0.4-1-1-1.8-1.9-2c2.8-0.7,4.2-2.7,4.2-5.6c0-3.5-3-5.4-7.2-5.4H575V122v8.8h5v-8
				h1.7c2,0,2.7,0.8,3.8,4.5l1.1,3.5h5.7l-2-5.3C590,124.2,589.7,122.8,589.3,122.8z M580,114.8h2.5c1.5,0,3.5,0.1,3.5,1.9
				c0,2.3-2.3,2.1-3.5,2.1H580V114.8z"/>
			<path class="st1" d="M546.5,122.8c-0.7-1-2.5-2.5-3.5-2.8v-0.2c2-0.7,3.7-2.2,3.7-4.9c0-3.5-2.8-5.2-6.7-5.2h-9v12.2v8.8h10
				c3.1-1,6.1-1.5,6.1-5.7C547.2,124.1,546.9,122.8,546.5,122.8L546.5,122.8z M536,114.8h1.6c1.8,0,3.5,0.2,3.5,2c0,1.7-1.7,2-3.5,2
				H536V114.8z M537.5,126.8H536V122v-0.2h1.6c0.8,0,1.4-0.2,2.4,0v0.1c1,0.3,1.7,1,1.7,2.3C541.7,126.3,539.6,126.8,537.5,126.8z"
				/>
			<path class="st1" d="M482,121.6v-11.9h-5v13h4.7C481.7,121.8,482,121.7,482,121.6z"/>
			<path class="st1" d="M489,121.6c0,0.1-0.1,0.2-0.1,0.3l0,0c0,2.7-0.8,4.9-3.6,4.9c-2.7,0-3.1-2.2-3.1-4.9h-5.1v0.7
				c0,4.3,1.7,6.8,5.1,7.7h6.7c3.4-0.9,5.2-3.4,5.2-7.7v-0.7v-12.2h-5v11.9C489.1,121.6,489,121.6,489,121.6z"/>
			<path class="st1" d="M499.1,121.9L499.1,121.9c-0.2,2.8-0.3,5.6-0.3,8.4h5.3c0-2.8,0.1-5.6,0.3-8.4h-2.6h2.6
				c0.3-4.1,0.8-8.2,1.6-12.1h-5.3C499.9,113.7,499.4,117.8,499.1,121.9z"/>
			<path class="st1" d="M459.5,109.8H452V122v8.8h9.8c5.2-1,9.1-3,9.8-8h-1.7l1.7-0.4c0.1-0.6,0.1-1.5,0.1-2.2
				C471.7,112.3,466.7,109.8,459.5,109.8z M466,122.1c-1,3-3,4.7-6.5,4.7H457V122v-7.2h2.5c4.2,0,6.6,1.6,6.6,5.8
				C466.1,121.2,466,121.4,466,122.1L466,122.1z"/>
			<path class="st1" d="M608,118.8v3.2v0.8h3v3.6c-1,0.3-1.5,0.9-2.4,0.9c-3.4,0-6.3-2.5-6.9-4.5h-0.1c-0.1-1-0.2-1.5-0.2-2
				c0-4.8,3.7-7.1,8.2-7.1c1.3,0,3.3,0.2,5,1.2l0.5-4.6c-2-0.7-5-0.9-6.3-0.9c-7.5,0-12.9,3.2-12.9,11.1c0,0.6,0.2,0.8,0.2,1.8v-0.2
				c1,4.9,4.1,7.4,7.9,8.3l9.5-0.1c0.7-0.1,1.5-0.4,2.5-0.6v-7.9v-3.2h-8V118.8z"/>
			<path class="st1" d="M557,121.6v-11.9h-6v13h6.2C557.2,121.8,557,121.7,557,121.6z"/>
			<path class="st1" d="M564,121.6c0,0.1,0.1-0.3,0.1,0.7l0,0c0,2.1-0.7,4.7-3.5,4.7c-2.7,0-4.1-2-4.1-4.7l-5.5-0.5v0.7
				c0,4.3,2.5,6.8,5.8,7.7h7.4c3.4-0.9,5.8-3.4,5.8-7.7v-0.7v-12.2h-6V121.6z"/>
			<path class="st1" d="M557,89.8h-45.4c-0.5,2-1.7,4-2,5H557V89.8z"/>
			<path class="st1" d="M504.6,98.4c-1.8,0-3.5,1.7-3.5,3.5s1.7,3.5,3.5,3.5s3.5-1.7,3.5-3.5S506.4,98.4,504.6,98.4z"/>
		</g>
		<polygon class="st1" points="7.2,130.8 14.3,130.8 19.2,107.8 19.2,107.8 24.2,130.8 31.2,130.8 38.3,102.8 33,102.8 27.9,124.8 
			27.8,124.8 23,102.8 15.6,102.8 10.9,124.8 10.8,124.8 5.7,102.8 0,102.8 		"/>
		<path class="st1" d="M41,130.8h5v-21h-5V130.8L41,130.8z M41,105.8h5v-5h-5V105.8L41,105.8z"/>
		<path class="st1" d="M52,130.8h5V123c0-2.9,0.2-8.2,4.5-8.2c0.9,0,2.5,0.2,2.5,0.4v-5.3c0-0.2-1.2,0.3-1.7,0.3
			c-3.1,0-5.4,3.5-5.6,5.5H57v-6h-5V130.8L52,130.8z"/>
		<path class="st1" d="M70,124.3c0,4,2.1,6.5,6.2,6.5c1.6,0,2.7-0.2,3.8-0.5l-0.2-4.1c-0.5,0.4-1.4,0.5-2.3,0.5
			c-2,0-2.4-1.6-2.4-3.3v-8.7h4v-5h-4v-5.2l-5,1.7v3.6h-4v5h4L70,124.3L70,124.3z"/>
		<path class="st1" d="M95,110.5c-1.6-0.4-3.2-0.7-5.7-0.7c-4.1,0-7.9,1.9-7.9,6.3c0,7.3,9.1,4.6,9.1,8.5c0,2-2.1,2.5-3.4,2.5
			c-1.8,0-3.5-0.5-5.2-1.3l-0.3,4.3c1.9,0.5,3.9,0.9,5.9,0.9c4.3,0,8.4-1.9,8.4-6.6c0-7.3-9.1-5.2-9.1-8.4c0-1.7,1.7-2.2,3.1-2.2
			c1.9,0,3.1,0.3,4.7,0.9L95,110.5L95,110.5z"/>
		<path class="st1" d="M112.8,110.4c-1.4-0.4-3-0.7-5.1-0.7c-6.3,0-9.7,4.6-9.7,10.4c0,6.1,3.3,10.6,9.9,10.6c2.2,0,3.7-0.2,5.2-0.7
			l-0.2-4.3c-0.9,0.4-2.5,0.9-4,0.9c-3.7,0-5.4-2.9-5.4-6.6c0-3.8,2.1-6.4,5.3-6.4c1.6,0,2.6,0.3,3.6,0.7L112.8,110.4L112.8,110.4z"
			/>
		<path class="st1" d="M116,130.8h6v-10.3c0-2.6,0.8-6.7,4.6-6.7c3.4,0,3.4,3.3,3.4,5.8v11.2h5v-13.1c0-4.5-2-7.5-6.8-7.5
			c-2.7,0-5,0.6-6.3,3.6h0.1v-13h-6L116,130.8L116,130.8z"/>
		<path class="st1" d="M141.1,115.8c1.8-1.3,4-1.8,6.2-1.8c3.1,0,4.5,1.8,4.5,4.8h-2.9c-2.2,0-4.8-0.2-6.8,0.8s-3.4,2.5-3.4,5.5
			c0,3.8,3.5,6.1,7,6.1c2.4,0,5-1.4,6.2-3.4h0.1c0,0,0,2,0.2,3h4.6c-0.1-2,0-3.2-0.1-4.7c0-1.5,0.1-3.2,0.1-5.2v-2.6
			c0-5.9-2.7-8.5-8.8-8.5c-2.2,0-5,0.6-7.1,1.5L141.1,115.8L141.1,115.8z M143.8,124.9c0-3.1,3.5-3.1,5.8-3.1h2.3
			c0,1-0.2,2.7-1.1,3.8c-0.8,1.1-2.1,1.8-3.7,1.8C145.3,127.3,143.8,126.6,143.8,124.9L143.8,124.9z"/>
		<path class="st1" d="M164,130.8h5v-16h4v-5h-4v-2c0-1.6,0.3-3.1,2.1-3.1c1.1,0,1.7,0.4,2.2,0.7l0.4-4.3c-1-0.2-2.2-0.4-3.5-0.4
			c-4.1,0-6.1,2.8-6.1,6.8v2.3h-4v5h4L164,130.8L164,130.8z"/>
		<path class="st1" d="M178,124.3c0,4,2.6,6.5,6.7,6.5c1.6,0,3-0.2,4.1-0.5l-0.1-4.1c-0.5,0.4-1.9,0.5-2.8,0.5c-2,0-2.9-1.6-2.9-3.3
			v-8.7h7v-5h-7v-5.2l-5,1.7v3.6h-3v5h3V124.3L178,124.3z"/>
		<path class="st1" d="M204.5,110.5c-1.6-0.4-3.2-0.7-5.7-0.7c-4.1,0-7.9,1.9-7.9,6.3c0,7.3,9.1,4.6,9.1,8.5c0,2-2.1,2.5-3.4,2.5
			c-1.8,0-3.5-0.5-5.2-1.3l-0.3,4.3c1.9,0.5,3.9,0.9,5.9,0.9c4.3,0,8.4-1.9,8.4-6.6c0-7.3-9.1-5.2-9.1-8.4c0-1.7,1.7-2.2,3.1-2.2
			c1.9,0,3.1,0.3,4.7,0.9L204.5,110.5L204.5,110.5z"/>
		<path class="st1" d="M214.5,120.2c0-2.8,1.3-6.4,4.7-6.4s4.3,3.7,4.3,6.4c0,2.8-1,6.5-4.4,6.5
			C215.6,126.8,214.5,123.1,214.5,120.2L214.5,120.2z M209,130.8h5v-3h0.4c1.5,2,3.9,3,6.2,3c6.2,0,8.4-5,8.4-10.6s-2.3-10-8.4-10
			c-2.7,0-4.6,0.5-6,3.5h-0.5v-13h-5L209,130.8L209,130.8z"/>
		<path class="st1" d="M236.8,118.8c0.2,0,1.7-4.7,4.7-4.7c2.9,0,4.1,2.7,4.3,4.7H236.8L236.8,118.8z M249,125c0,1.1-4,2.5-6.6,2.5
			c-3.2,0-5.4-1.7-5.6-4.7h13.9c0-7-2.1-12.6-9.6-12.6c-6.3,0-9.3,4.6-9.3,10.4c0,6.6,3.8,10.3,10.4,10.3c2.8,0,4.8-0.7,6.8-1.7
			L249,125L249,125z"/>
		<path class="st1" d="M255,124.3c0,4,2.8,6.5,6.9,6.5c1.6,0,3.1-0.2,4.2-0.5v-4.1c-0.5,0.4-1.6,0.5-2.5,0.5c-2,0-2.6-1.6-2.6-3.3
			v-8.7h5v-5h-5v-5.2l-6,1.7v3.6h-3v5h3V124.3L255,124.3z"/>
		<path class="st1" d="M270,130.8h5V123c0-2.9-0.3-8.2,4-8.2c0.9,0,2,0.2,2,0.4v-5.3c0-0.2-0.8,0.3-1.3,0.3c-3.1,0-5,3.5-5.2,5.5
			h0.5v-6h-5V130.8L270,130.8z"/>
		<path class="st1" d="M284,130.8h5v-21h-5V130.8L284,130.8z M284,105.8h5v-5h-5V105.8L284,105.8z"/>
		<path class="st1" d="M299,118.8c0.2,0,1.7-4.7,4.7-4.7c2.9,0,4.1,2.7,4.3,4.7H299L299,118.8z M312,125c0,1.1-4.4,2.5-7,2.5
			c-3.2,0-5.8-1.7-6-4.7h13.9c0-7-2.1-12.6-9.6-12.6c-6.3,0-9.3,4.6-9.3,10.4c0,6.6,4.1,10.3,10.8,10.3c2.8,0,5.2-0.7,7.2-1.7V125
			L312,125z"/>
		<path class="st1" d="M321.9,120.2c0-2.8,1.3-6.4,4.7-6.4c3.4,0,4.3,3.7,4.3,6.4c0,2.8-1,6.5-4.4,6.5
			C323.1,126.8,321.9,123.1,321.9,120.2L321.9,120.2z M317,130.8h4v-3h0.8c1.5,2,3.9,3,6.2,3c6.2,0,8.4-5,8.4-10.6s-2.3-10-8.4-10
			c-2.7,0-4.6,0.5-6,3.5l0,0v-13h-5V130.8L317,130.8z"/>
		<path class="st1" d="M344,118.8c0.2,0,1.7-4.7,4.7-4.7c2.9,0,4.1,2.7,4.3,4.7H344L344,118.8z M356,125c0,1.1-3.9,2.5-6.4,2.5
			c-3.2,0-5.3-1.7-5.5-4.7H358c0-7-2.1-12.6-9.6-12.6c-6.3,0-9.3,4.6-9.3,10.4c0,6.6,3.6,10.3,10.3,10.3c2.8,0,5.7-0.7,6.7-1.7V125
			L356,125L356,125z"/>
	</g>
	<polygon class="st3" points="362,74.8 402,74.8 402,6 320,6 320,87.8 362,87.8 	"/>
</g>
</svg>
